<svg width="50" height="50" viewBox="0 0 28 28" fill="none" xmlns="http://www.w3.org/2000/svg">
<path d="M20.8906 20.2891C22.5312 18.5391 23.3516 16.4427 23.3516 14C23.3516 12.0677 22.8047 10.3177 21.7109 8.75C20.6536 7.18229 19.25 6.05208 17.5 5.35938V5.85156C17.5 6.47135 17.263 7.01823 16.7891 7.49219C16.3151 7.92969 15.7682 8.14844 15.1484 8.14844H12.8516V10.5C12.8516 10.8281 12.724 11.1016 12.4688 11.3203C12.25 11.5391 11.9766 11.6484 11.6484 11.6484H9.35156V14H16.3516C16.6797 14 16.9531 14.1094 17.1719 14.3281C17.3906 14.5469 17.5 14.8203 17.5 15.1484V18.6484H18.6484C19.7422 18.6484 20.4896 19.1953 20.8906 20.2891ZM12.8516 23.2422V21C12.2318 21 11.6849 20.763 11.2109 20.2891C10.737 19.8151 10.5 19.2682 10.5 18.6484V17.5L4.92188 11.9219C4.73958 12.651 4.64844 13.3438 4.64844 14C4.64844 16.3698 5.43229 18.4297 7 20.1797C8.60417 21.9297 10.5547 22.9505 12.8516 23.2422ZM5.74219 5.79688C8.03906 3.5 10.7917 2.35156 14 2.35156C17.2083 2.35156 19.9427 3.5 22.2031 5.79688C24.5 8.05729 25.6484 10.7917 25.6484 14C25.6484 17.2083 24.5 19.9609 22.2031 22.2578C19.9427 24.5182 17.2083 25.6484 14 25.6484C10.7917 25.6484 8.03906 24.5182 5.74219 22.2578C3.48177 19.9609 2.35156 17.2083 2.35156 14C2.35156 10.7917 3.48177 8.05729 5.74219 5.79688Z" fill="white"/>
</svg>
